<svg width="48" height="48" viewBox="0 0 48 48" fill="none" xmlns="http://www.w3.org/2000/svg">
<g clip-path="url(#clip0_27_69)">
<path d="M44.3615 17.8395C41.2928 12.0157 35.2631 7.11358 27.4981 4.25073C26.1255 3.92718 25.2529 4.4272 24.8411 5.68215C24.7431 5.98609 24.6353 6.39787 24.6353 6.80965C22.2822 5.88804 19.8311 5.47626 17.3801 5.17233C13.1152 4.72133 8.30129 2.71145 2.77167 0.162331C1.58535 -0.38671 -0.0029493 0.505482 0.0166593 2.10358C0.712765 7.70184 3.49719 12.2706 8.19344 15.8982C8.45816 22.4083 11.7524 27.0555 19.3311 29.085C25.9294 31.0851 31.4787 34.2715 35.9886 38.5854C38.1358 40.9384 39.126 43.6248 39.5672 46.1445C39.8711 47.9387 41.3516 47.9779 41.4104 47.9877C42.1948 48.0956 43.1458 47.4779 43.4497 46.6543L45.6949 39.7031C49.0774 32.6734 48.7734 25.3888 44.3615 17.8395ZM43.3419 25.9182C44.4203 28.1144 44.2242 31.4871 42.7144 36.1049C41.2732 29.7517 37.0083 19.2513 24.5372 14.6727C23.5176 14.3688 22.3901 14.8786 21.9783 15.8982C21.6744 16.9179 22.1842 18.0454 23.2038 18.4572C32.4787 21.9181 36.4396 29.3497 38.126 34.8402C33.4493 30.5949 27.9295 27.5261 21.6744 25.5163C16.2036 24.3594 13.2819 21.7612 12.3701 16.212C12.3995 15.0551 12.0073 13.9962 11.1445 13.0452C8.49738 10.2608 5.8012 8.37834 4.91881 5.47626C8.92877 7.39791 12.8799 8.56462 16.7722 8.94699C20.1449 9.45681 23.3117 9.86859 25.5569 11.702C27.0863 12.7118 28.9982 11.653 28.7236 9.6627C28.7236 9.35877 28.6256 9.04503 28.6256 8.7411C36.1455 12.5158 41.0477 16.7316 43.3419 25.9182Z" fill="#F8C164"/>
</g>
<defs>
<clipPath id="clip0_27_69">
<rect width="48" height="48" fill="white"/>
</clipPath>
</defs>
</svg>
