<?xml version="1.0" standalone="no"?>
<!DOCTYPE svg PUBLIC "-//W3C//DTD SVG 20010904//EN"
 "http://www.w3.org/TR/2001/REC-SVG-20010904/DTD/svg10.dtd">
<svg version="1.0" xmlns="http://www.w3.org/2000/svg"
 width="880.000000pt" height="919.000000pt" viewBox="0 0 880.000000 919.000000"
 preserveAspectRatio="xMidYMid meet">

<g transform="translate(0.000000,919.000000) scale(0.100000,-0.100000)"
fill="#ffffff" stroke="none">
<path d="M4100 8773 c-395 -38 -669 -95 -995 -206 -1260 -430 -2231 -1479
-2565 -2770 -91 -354 -124 -619 -124 -1007 0 -276 11 -422 51 -660 82 -502
273 -1006 547 -1447 266 -429 669 -854 1101 -1160 1040 -738 2425 -923 3640
-487 728 261 1383 746 1850 1369 970 1297 1057 3061 218 4450 -241 400 -560
763 -929 1059 -125 100 -373 268 -518 351 -490 280 -1040 450 -1626 504 -104
10 -564 13 -650 4z m574 -134 c938 -70 1799 -463 2456 -1119 583 -581 972
-1352 1089 -2155 210 -1435 -383 -2843 -1554 -3697 -520 -378 -1133 -618
-1800 -705 -175 -22 -709 -26 -875 -5 -890 110 -1639 462 -2264 1062 -678 652
-1088 1519 -1167 2468 -15 177 -6 612 15 770 77 571 253 1078 539 1545 486
794 1258 1396 2142 1671 452 140 962 200 1419 165z"/>
<path d="M2970 6769 c-221 -43 -382 -277 -341 -497 65 -355 498 -486 743 -224
199 212 138 551 -122 682 -92 46 -180 58 -280 39z"/>
<path d="M2620 4300 l0 -1240 435 0 435 0 0 1240 0 1240 -435 0 -435 0 0
-1240z"/>
<path d="M3982 4303 l3 -1238 363 -3 362 -2 0 687 c0 732 3 793 49 914 68 180
194 261 406 261 240 1 362 -115 410 -389 12 -70 15 -208 15 -779 l0 -694 376
0 375 0 -3 828 c-4 810 -5 829 -27 951 -81 439 -285 638 -706 690 -394 48
-749 -63 -891 -278 l-29 -45 -3 167 -2 167 -350 0 -350 0 2 -1237z"/>
</g>
</svg>
