<?xml version="1.0"?>
<svg width="700" height="560" xmlns="http://www.w3.org/2000/svg" xmlns:svg="http://www.w3.org/2000/svg" version="1.1">

 <g class="layer">
  <title>Layer 1</title>
  <g id="svg_22">
   <path d="m303.96,451.11c9.625,2.4375 18.812,4.918 28.438,6.6055c-0.13672,-0.34766 -0.21875,-0.71484 -0.25,-1.0859c0,-2.9297 -0.20312,-5.7617 -0.4375,-8.5938c-0.02734,-0.00391 -0.05078,0.01953 -0.05078,0.04688c-7.1289,-0.375 -14.266,0.39844 -21.148,2.2852c-2.1055,0.71094 -4.3398,0.96484 -6.5508,0.74219l-0.00092,-0.00007zm-104.17,-277.75c4.9648,0.64844 9.9805,0.99219 14.402,1.4922c16.828,1.7852 3.8711,-2.7344 -1.3906,-2.2891c-4.3242,0.44922 -8.6914,0.75 -13.012,0.79688l0.0006,0.00002zm232.31,62.266c-5.25,7.1953 -6.9531,15.539 -8.9414,25.668c-1.1367,5.8633 0.69922,12.809 -4.4141,16.734c-1.4492,1.418 -3.6602,1.7031 -5.418,0.69531c-7.0977,-5.25 -9.832,-13.809 -17.527,-18.719c-2.9258,-1.8359 -7.0977,-4.0703 -8.2422,-7.5938l0,-0.00391c-1.6953,-5.6562 -2.2656,-11.59 -1.6836,-17.465c-1.4609,4.4531 -4.7188,8.0898 -8.9844,10.027c-1.543,0.41797 -3.1875,-0.01562 -4.3203,-1.1406c-1.4883,-1.6367 -2.9805,-3.1289 -4.4688,-4.668l0.00391,0c-0.32812,0.17578 -0.67969,0.29297 -1.0469,0.34766c0.75,0 -0.54688,2.6836 -0.74219,3.5273l-0.00391,0c-0.25391,1.3438 -0.58594,2.668 -0.99219,3.9727c-1.5977,3.75 -2.9141,7.6172 -3.9375,11.566c-1.043,5.6602 -9.6836,3.2773 -8.5898,-2.332l0.00391,0c0.83203,-3.4844 1.9609,-6.8867 3.375,-10.18c0.84375,-2.3828 1.1914,-4.918 2.0352,-7.2969c0.71094,-2.168 1.9219,-4.1406 3.5273,-5.7617c-3.5273,-3.3242 -7.0508,-6.6016 -10.625,-10.062l-0.00391,0c-0.28125,0.125 -0.57422,0.22266 -0.875,0.29688c-2.9297,0.4375 -5.957,7.4961 -7.3984,9.832c-2.6445,3.4141 -3.3594,7.9492 -1.8828,12.012c1.9336,5.4102 -6.707,7.75 -8.6406,2.3359c-2.2305,-7.0938 -0.75391,-14.832 3.9375,-20.605c2.4844,-3.6758 4.7188,-8.9375 8.7891,-11.172c-1.2773,-2.1328 -2.1836,-4.4648 -2.6797,-6.9023c-9.6875,2.2812 -19.559,3.7266 -29.496,4.3203c-8.9844,9.1367 -8.0938,29.539 -2.1367,39.023c5.957,9.4844 12.957,8.8906 16.531,17.625c2.625,6.457 11.125,8.9844 15.891,14.598c7.1016,8.3438 15.145,4.9648 23.336,3.5742l0.00391,0.00391c1.9531,-0.52344 4.0156,0.30469 5.0625,2.0352c2.5391,4.918 2.2344,7.25 7.6992,10.18c4.375,2.3828 16.039,10.574 20.008,6.8984c1.0078,-0.94141 2.3828,-1.3828 3.75,-1.1992c1.3672,0.18359 2.5781,0.97266 3.3008,2.1445c5.6562,7.9453 9.0859,5.7109 17.23,2.8789c1.5508,-0.39453 3.1953,0.05859 4.3242,1.1914c0.09765,0.10156 0.19531,0.25 0.29688,0.35156c1.2344,-2.8242 2.9297,-5.4258 5.0117,-7.6992c4.2695,-4.5195 10.223,-5.6094 15.242,-8.9375c-6.1836,-2.9727 -11.918,-6.8008 -17.031,-11.375c-1.9453,-1.6445 -3.4297,-3.7656 -4.3164,-6.1562c-0.67188,-2.3281 -1.0703,-4.7266 -1.1953,-7.1484c-0.28906,-3.0039 -0.30469,-6.0273 -0.04688,-9.0391c0.5625,-4.125 1.375,-8.2188 2.4297,-12.25c0.59766,-2.2969 1.3438,-4.5508 2.2383,-6.75c0.4375,-1.3125 0.79297,-2.625 1.1406,-3.9766c0.06641,-1.1484 0.22656,-2.2891 0.48438,-3.4062l-0.01211,0.00049zm145.03,-62.664c4.8125,4.1719 11.77,13.258 11.621,19.863c-0.03906,2.0156 -1.3906,3.7695 -3.332,4.3164c-12.066,3.4258 -22.438,-7.9453 -34.703,-7.875c-11.812,0 -29.098,-2.4336 -40.57,3.1758l0.00391,0c4.0234,1.5 7.9258,3.3086 11.668,5.4141c2.1836,1.0469 3.7812,3.0156 4.3594,5.3672c0.58203,2.3516 0.07812,4.8398 -1.3672,6.7812c-1.4922,2.625 -5.1133,2.625 -8.043,2.332c6.7344,1.0703 13.539,1.6172 20.359,1.6367c12.25,-0.29688 42.75,12.863 32.375,30.539c-3.6758,6.3086 -10.527,4.3242 -16.781,2.832l-0.00391,-0.00391c1.5898,1.8906 3.0508,3.8789 4.375,5.9609c2.375,2.918 3.7773,6.5039 4.0156,10.262c0.24219,3.7539 -0.69531,7.4883 -2.6758,10.688c-3.0625,6.457 14.438,31.938 17.824,35.848c4.6211,5.3164 1.3906,13.059 -1.5898,18.223c-4.2188,7.3516 -14.875,3.7773 -21.438,3.7266c-13.16,-0.05078 -27.707,-1.3125 -39.719,-7.4375l0,0.00391c-4.0586,-2.0195 -7.5195,-5.0664 -10.031,-8.8398c-4.6211,-6.207 -7.8438,-3.7227 -13.309,-6.9531c-8.6836,-5.0625 -8.4375,-17.625 -11.266,-25.812c-2.2383,-6.5039 -4.3242,-15.789 -6.9023,-22.793l-0.00391,0c-0.30859,5.2188 -0.95703,10.41 -1.9375,15.547c-2.4883,6.6367 -3.5547,13.723 -3.1289,20.801c0.43359,1.7422 -0.20312,3.5781 -1.625,4.6758s-3.3594,1.25 -4.9375,0.39062c-0.99219,-0.5 -2.082,-0.99219 -3.1289,-1.4922c-4.668,4.3242 -10.277,5.0664 -15.344,8.9375l0.00391,0c-2.8828,2.1953 -5.1133,5.1289 -6.4531,8.4922c1.5039,0.74609 2.5234,2.2109 2.7031,3.8828c0.17578,1.6719 -0.51172,3.3164 -1.8281,4.3594c-20.699,15.773 -31.125,41.441 -46.867,61.352c-8.4375,10.625 -12.953,26.516 -18.566,38.828c-1.5898,3.5273 -3.625,8.3125 -5.3594,13.355c9.082,0.69531 29.242,2.4336 31.328,9.8789c0.17578,0.76953 0.26172,1.5508 0.24609,2.3398c1.0625,0.67578 1.7383,1.8164 1.8164,3.0742c0.08203,1.2578 -0.44922,2.4766 -1.418,3.2812c-4.418,3.8203 -4.668,20.562 -5.6602,25.965c-1.6875,10.738 -2.7812,21.562 -3.2773,32.422c-0.59375,8.5391 0.79688,17.281 -7.1953,19.41l-0.00391,0.00391c-0.60938,0.84766 -1.543,1.4062 -2.5781,1.5391c-5.4102,0.84375 -9.2383,4.2695 -14.848,4.7695c-8.5391,0.74219 -16.93,0.39453 -25.422,0.39453c-9.4805,0 -24.18,-1.2383 -31.727,-7.543l-0.0039,0c-1.3242,-0.94141 -1.8359,-2.6641 -1.2383,-4.1758c-2.9297,-12.512 -1.75,-25.375 -5.6133,-37.688l0,0.0039c-3.3203,-12.836 -5.9688,-25.832 -7.9414,-38.938c-0.26172,-1.1953 -0.03125,-2.4453 0.64453,-3.4648c0.67188,-1.0195 1.7305,-1.7266 2.9297,-1.9531c7.1484,-8.3867 29.492,-9.4336 34.902,-9.5273c-2.2422,-11.016 -5.5312,-21.793 -9.8281,-32.18c-6.5547,-16.703 -12.207,-35.188 -20.012,-51.266c-6.9531,-14.398 -14.203,-29.543 -22.492,-43.312c-6.8047,-11.273 -14.898,-21.254 -19.066,-33.965l0,-0.20312c-3.0273,6.6055 -8.5391,10.328 -18.273,14.699l0,0.00391c-1.3867,0.80078 -3.1016,0.78125 -4.4688,-0.05078c-0.14844,-0.04688 -0.19531,-0.14844 -0.29688,-0.24609c-3.7695,14.875 -12.762,32.719 -28.438,26.512c-1.9023,-0.67969 -3.2031,-2.4492 -3.2773,-4.4688c-1.1914,-10.379 -0.64844,-21.102 -2.3359,-31.938c-0.83984,-5.4102 1.5898,-17.379 0.5,-25.125c-7.0508,15.844 4.5664,40.469 -8.0469,55.211c-8.1406,9.4844 -17.176,15.594 -30.434,11.969c-9.1875,-2.5312 -2.5312,-23.289 -2.5312,-29.312c0.16406,-5.4609 1.6289,-10.809 4.2695,-15.594c1.8125,-4.5391 2.8008,-9.3633 2.9258,-14.246c-1.3555,1.4062 -2.5977,2.918 -3.7227,4.5195c-4.7344,6.7734 -8.3086,14.289 -10.574,22.242c-1.5391,5.5117 1.3398,14.945 -6.4531,17.062c-7.3516,1.9844 -41.266,-6.3555 -36.145,-19.316c6.4648,-17.477 16.168,-33.578 28.594,-47.465c6.9258,-8.207 16.023,-14.301 26.25,-17.578c5.3125,-1.8867 7.3984,-10.871 12.316,-15.344c-0.17578,-0.30078 -0.32422,-0.61328 -0.4375,-0.94141c-6.3516,-15.246 -17.129,-27.309 -16.383,-44.543l-0.00391,0c0.07031,-0.84375 0.34375,-1.6602 0.79688,-2.3789c-5.3164,-5.25 -7.25,-12.863 -8.8359,-22.992c-1.4922,-9.4336 -3.7695,-24.824 1.3398,-33.613l0,0.0039c0.56641,-0.91406 1.3086,-1.707 2.1875,-2.332c-1.1055,-2.1719 -1.6836,-4.5664 -1.6914,-7c-0.39844,-12.164 14.152,-24.062 19.863,-33.863c0.03906,-0.07422 0.08984,-0.14062 0.14844,-0.19922c0.12891,-0.64062 0.38281,-1.2461 0.75,-1.7891c-6.043,-10.969 28.082,-28.891 24.512,-35.695c-0.67188,-1.2031 -0.75781,-2.6484 -0.23828,-3.9258c0.51953,-1.2734 1.5938,-2.2461 2.918,-2.6367c5.7617,-1.1953 8.9414,1.0938 14.848,1.0938c5.793,-0.40625 11.613,-0.08984 17.328,0.94141c8.3125,2.2852 12.512,11.621 15.984,18.621c0.15234,-0.10156 0.29688,-0.25 0.4375,-0.34375c9.8789,-6.4062 29.391,-7.2031 39.227,-0.59375l0.00391,-0.0039c2.4727,1.4375 4.2734,3.7969 5.0078,6.5625c1.8203,-2.6172 4.1914,-4.8047 6.9531,-6.4023c10.062,-5.9102 24.633,24.426 28.059,28.438c6.4531,7.5469 2.0352,25.125 -1.4922,32.871c-3.3789,7.4023 -6.4062,15.344 -12.859,20.66c-2.7773,2.2852 -5.5625,7.4375 -7.7969,9.0859c4.3164,-3.0859 8.4062,-6.4727 12.25,-10.133c8.1484,-7.8164 14.973,-16.906 20.207,-26.91c2.3828,-4.5664 2.0352,-6.8984 5.0664,-10.676c1.7734,-1.7109 4.582,-1.7109 6.3555,0c13.797,11.871 13.75,43.051 11.121,59.238c-1.3398,8.1914 -13.457,18.375 -20.605,21.594c-3.6211,1.6406 -14.75,4.9648 -4.8711,4.7695c10.477,-0.20313 15.496,-6.5039 23.984,-11.473c1.7461,-1.0586 3.9922,-0.76953 5.4141,0.69531c3.4336,4.7109 4.9102,10.562 4.1211,16.336c0.57031,-0.30859 1.1914,-0.50781 1.8359,-0.59375c12.051,-1.168 24.133,1.8086 34.262,8.4414c8.5391,5.6602 3.6758,-3.4258 11.621,-1.4375c5.8594,1.4375 10.875,-1.5391 16.93,-2.7305l0,-0.00391c0.125,-4.9844 3.2695,-9.3867 7.9453,-11.121c1.9336,-0.54688 2.582,1.1406 3.1758,-1.0469l0,0.0039c0.21094,-0.74609 0.60547,-1.4297 1.1445,-1.9883c2.0352,-2.1875 3.7227,-5.0625 5.5625,-7.4375c5.2109,-6.5039 8.9844,-13.457 17.062,-16.734l-0.00391,0c6.582,-3.0312 14.195,-2.8281 20.605,0.54688c0.25,0.10156 0.34375,0.29688 0.54687,0.39844c4.2188,-2.1875 8.5898,-4.0742 12.859,-5.8594c4.1211,-1.75 13.125,-1.75 13.902,3.7695c0.10156,0 0.14844,-0.04687 0.25,-0.04687c1.75,-0.19531 3.7227,-1.3125 5.8086,-1.7891c5.8594,-1.3867 10.938,-3.1758 16.285,0.39844c3.3594,2.3438 5.1211,6.3711 4.5664,10.426c4.5,-0.47266 9.043,0.26562 13.16,2.1367c7.2969,3.6797 20.453,4.7188 25.418,11.125l0.00391,0c0.94531,0.99219 1.3906,2.3633 1.207,3.7266c-0.18359,1.3594 -0.97266,2.5625 -2.1484,3.2734c-3.8008,2.2461 -8.0664,3.5938 -12.465,3.9375c0.29688,0.20313 0.5,0.29688 0.84375,0.54688c1.457,0.83203 2.8477,1.7695 4.1641,2.8086l-0.00819,-0.00128zm1.9844,18.57c-3.918,-6.7578 -9.5742,-12.348 -16.383,-16.188c-2.1367,-1.3906 -4.5664,-2.5312 -4.6211,-5.4102c-0.14844,-6.9531 4.6211,-8.4375 10.133,-9.2852c-0.54297,-0.13672 -1.0742,-0.32031 -1.5859,-0.54688c-5.6133,-2.4844 -12.363,-6.3047 -18.773,-5.6875c-1,0.19141 -1.9805,0.47266 -2.9297,0.84375c-1.2422,0.28516 -2.5039,0.46484 -3.7734,0.54688c-2.1875,0.24609 -4.8633,0.94141 -5.5625,3.3242l0,0.00391c-0.11328,1.043 -0.69922,1.9766 -1.5859,2.5312c-2.4844,1.7852 -8.5391,1.2383 -8.5391,-2.7812c0,-1.8867 1.7852,-3.4727 2.8789,-4.7656c1.3438,-1.7305 2.8359,-3.3438 4.4648,-4.8125c1.5977,-1.1797 3.0664,-2.5312 4.375,-4.0234c1.9844,-2.582 0.10156,-3.5 -2.625,-3.8203c-2.9297,-0.03516 -5.7461,1.1289 -7.7969,3.2227c-0.79688,0.54687 -7.2969,4.9648 -7.5469,2.3828l0,0.0039c-1.7305,1.3516 -3.5547,2.582 -5.4609,3.6758c-2.043,0.55078 -4.0234,1.3164 -5.9102,2.2812c-3.4102,2.8203 -5.6289,6.832 -6.2031,11.223c-0.84766,5.6875 -9.4844,3.2773 -8.5938,-2.3359c1.0938,-7.2969 5.957,-16.035 13.656,-18.02c1.5859,-0.44922 2.8594,-1.6328 3.4258,-3.1836c-0.54688,0.20312 -1.1406,0.35156 -1.6875,0.59375l0,0.00391c-5.8203,2.6172 -11.477,5.5859 -16.934,8.8906c-9.3906,6.1523 -15.871,15.871 -17.938,26.91c-0.35937,2.5586 -1.0625,5.0625 -2.0859,7.4375c1.6797,0.97266 3.2891,2.0703 4.8125,3.2773c0.46094,0.375 0.80859,0.87109 0.99219,1.4375c3.582,-2.1445 7.7695,-3.0547 11.918,-2.582c3.418,0.57031 6.8008,1.3359 10.133,2.2852c11.02,-9.7812 22.594,-7.8438 36.891,-8.3906c13.379,-0.51172 34.676,-2.7422 42.871,10.957l-0.01539,0.00078zm-9.7305,126.76c0.4375,-3.1758 -3.9375,-6.6055 -5.1133,-8.9844c-3.8242,-7.4375 -10.133,-14.695 -12.863,-22.195c-2.0352,-5.5625 -4.168,-12.02 -0.74219,-17.379c7.875,-12.363 -10.328,-16.883 -16.039,-22.891l0,0.00391c-1.4219,-1.4453 -1.707,-3.6602 -0.69531,-5.418c4.5664,-7.1484 15.793,-4.5664 22.941,-2.625c11.617,3.1289 -1.4453,-8.3125 -3.6758,-9.8789l0.00391,0c-4.3594,-4.0508 -10.145,-6.2109 -16.09,-6.0078c-9.1875,0.19531 -17.727,-2.0391 -26.715,-2.0391l0.0039,0c-2,-0.04297 -3.7422,-1.3633 -4.3242,-3.2773c-1.0391,-2.6055 -0.30078,-5.582 1.8438,-7.3945c4.5664,-4.9141 10.723,-3.2305 4.4141,-4.9648c-12.711,-3.4805 -21.023,-14.953 -35.023,-6.0625c-3.9258,2.8555 -8.2617,5.0977 -12.859,6.6523c-1.7461,0.45312 -3.5938,-0.17969 -4.6992,-1.6055c-1.1055,-1.4258 -1.2539,-3.3711 -0.37891,-4.9492c1.4375,-3.168 3.5781,-5.9688 6.2578,-8.1914c-11.605,-7.3867 -26.191,-8.3086 -38.633,-2.4375c-1.457,0.88672 -3.207,1.1562 -4.8633,0.75c10.383,7.1484 21.352,14.598 31.828,20.703c4.2578,2.6875 7.9492,6.1797 10.875,10.281c1.5078,-2.0742 3.2188,-3.9883 5.1094,-5.7148c4.7695,-4.6641 10.875,-3.5 16.93,-5.0156c2.375,-0.65625 4.832,0.73437 5.4883,3.1055c0.66016,2.3711 -0.73047,4.832 -3.1016,5.4883c-2.332,0.6875 -4.7266,1.1367 -7.1484,1.3398c-1.2383,0.04687 -4.0742,-0.34375 -5.0664,0.59375c-0.19531,0.20312 -0.59375,0.64844 -1.0898,1.1953c6.3906,-0.25781 12.672,1.707 17.773,5.5586c4.375,3.7695 -1.9844,10.062 -6.3555,6.3047c-2.8672,-2.0273 -6.3906,-2.9141 -9.8789,-2.4805c3.2227,1.6641 6.2539,3.6797 9.0352,6.0078c6.9648,7.3164 14.781,13.77 23.289,19.215c5.6211,2.8672 10.844,6.457 15.539,10.676c6.8047,6.6562 11.566,11.965 9.832,21.695c-0.99219,5.7148 -9.582,3.2812 -8.5938,-2.332c2.4375,-14 -23.98,-22.492 -31.973,-28.945c-8.5664,-6.9531 -17.43,-13.82 -25.875,-20.707c-1.75,-1.4922 -3.5,-3.0273 -5.168,-4.5664c-0.14453,0.04687 -0.24609,0.04687 -0.39453,0.10156l0.00391,0c-0.79297,0.25781 -1.6523,0.23828 -2.4336,-0.05469c0,0.03125 -0.02344,0.05469 -0.05078,0.05469c-2.2305,0.94141 -3.4219,4.2188 -4.7656,6.0078l0,-0.00391c-1.8633,2.1523 -2.9648,4.8555 -3.1289,7.6953c-0.19531,5.7617 -9.1406,5.7617 -8.9375,0c0.39062,-4.9336 2.2148,-9.6484 5.25,-13.562c1.6641,-2.9141 3.9336,-5.4336 6.6523,-7.3945c-2.4805,-2.3828 -5.0156,-4.7188 -7.5469,-7.1016c-4.9648,1.6875 -7.6953,-0.94531 -12.859,-1.9375l0.0039,0c-5.0352,-1.2383 -10.355,0.01953 -14.301,3.375c-4.4727,3.4727 -10.871,-2.7812 -6.3047,-6.3555c3.4688,-3.5742 8.0977,-5.793 13.059,-6.2578c2.2852,-0.08203 4.5742,-0.01562 6.8516,0.20312c-5.6602,-3.7266 -11.77,-6.8047 -17.625,-10.23l-0.0039,0c-1.0156,1.1289 -2.6562,1.4531 -4.0234,0.79297c-3.8008,-1.6328 -7.8438,-2.6211 -11.965,-2.9258c-4.7617,-0.08203 -9.3672,1.6758 -12.859,4.9102c-4.5195,3.4766 -10.875,-2.7773 -6.3516,-6.3555c4.2539,-4.1641 9.7695,-6.7969 15.684,-7.4922c0.64844,0 1.3125,0.04688 1.9375,0.10156l0,-0.00391c-7.6836,-4.0352 -16.391,-5.7109 -25.023,-4.8125c-1.1992,0.18359 -2.4102,-0.24609 -3.2305,-1.1406c-2.4414,8.5547 -7.3477,16.203 -14.102,21.992c-1.9102,1.5547 -3.9922,2.8867 -6.2031,3.9727c2.832,9.9297 16.484,17.281 22.391,24.625c3.2305,4.1211 2.2344,6.3086 4.418,1.75c3.3281,-7 8.75,-16.883 16.684,-19.02l0,0.00391c1.7422,-0.4375 3.5781,0.20312 4.668,1.6289c1.0938,1.4297 1.2305,3.3672 0.35156,4.9336c-3.4922,5.8047 -4.8281,12.652 -3.7773,19.344c1.0547,6.6914 4.4297,12.797 9.5352,17.25c2.9766,2.3555 5.457,5.2734 7.3008,8.5898c0.39844,0.69141 0.69531,1.2891 0.94141,1.7852c-0.04688,-0.86328 0.01953,-1.7305 0.19531,-2.5781c3.5312,-17.938 4.8711,-30.289 19.117,-41.707l0.0039,0c1.1445,-1.0898 2.7734,-1.5039 4.3008,-1.1016c1.5273,0.40625 2.7383,1.5742 3.1953,3.0859c3.7227,11.965 -2.0859,24.031 -5.5117,35.25c-4.375,14.402 10.973,24.781 23.285,31.234c0.5,-6.0078 2.2383,-11.812 3.3789,-18.074c1.8359,-9.9297 0.35156,-18.621 6.0586,-27.16c0.81641,-1.3438 2.2734,-2.1602 3.8477,-2.1602c1.5703,0 3.0273,0.81641 3.8477,2.1602c8.0938,14.102 9.7812,32.523 15.445,47.617c4.0195,10.824 12.562,7.3984 18.324,15.141c8.4375,11.375 25.219,14.996 38.828,15.047c4.9219,0.03906 20.566,3.4141 21.656,-4.7305l-0.01618,-0.00076zm-85.586,-173.91c-11.566,-1.6875 -20.902,13.207 -26.316,21.797c-0.30078,1.6562 -1.0781,3.1914 -2.2344,4.418c-2.582,2.0859 -7.2969,2.1875 -8.8359,5.2148l-0.00391,0c5.9375,0.94531 11.754,2.5391 17.34,4.75c0.04688,0 0.10156,-0.05078 0.19531,-0.10156c0.39844,-0.10156 2.4844,-10.777 3.2305,-12.066l0,0.00391c2.2617,-5.4883 4.9336,-10.797 7.9922,-15.887c2.4883,-3.0938 5.3945,-5.8281 8.6328,-8.1289l-0.0006,-0.00025zm-57.496,178.43c-0.125,-0.04687 -0.24609,-0.11719 -0.35156,-0.19922c-4.1211,-3.4727 -0.64453,-3.3242 -4.7656,-1.4883l0.00391,0c0.10938,1.2734 -0.39062,2.5273 -1.3438,3.3789c-10.707,11.07 -19.59,23.77 -26.316,37.625c3.0938,-4.5195 6.4453,-8.8594 10.031,-13c7.75,-8.7891 14.297,-18.375 22.742,-26.316l0.00005,-0.00038zm-18.023,0.99219c-3.3984,-1.75 -6.082,-4.6289 -7.5977,-8.1406c-7.4141,0.92578 -14.938,-0.39062 -21.598,-3.7734c0.01562,0.85156 -0.24609,1.6914 -0.75,2.3828c-6.8516,9.6836 -10.938,26.613 -13.203,38.031c-0.29687,1.4883 -0.64844,2.9297 -0.94531,4.418c1.0664,1.3438 1.2578,3.1836 0.49609,4.7188c-4.0703,8.75 -0.94141,24.18 0,33.566l0,-0.00391c0.08203,1.8047 0.06641,3.6133 -0.05078,5.4141c1.4375,-3.5273 2.9805,-7.0469 4.7695,-10.574c11.02,-22.195 22.043,-47.172 38.879,-66.039l0.0002,0.00021zm-36.195,134.11c4.168,-1.1953 21.5,-2.0391 12.164,-5.1172l-0.00391,0.00391c-6.832,-2.4219 -13.938,-4.0078 -21.152,-4.7188c-0.87891,3.7734 -1.0625,7.6797 -0.54297,11.52c3.2227,-0.26172 6.4141,-0.82812 9.5352,-1.6836l-0.00032,-0.00431zm10.125,29.094c1.0469,-5.8594 1.3125,-15.492 3.1797,-23.586l0,0.00391c-3.4883,1.457 -7.1406,2.4844 -10.879,3.0625c-14.875,2.1367 -30.93,4.2695 -45.727,0c-6.7031,-1.8867 -17.973,-1.9375 -26.02,-5.1133c2.0352,8.75 4.3242,17.578 5.4648,26.25c0.94141,7.6953 3.2773,13.805 3.7227,21.75l0,-0.00391c0.14453,6.4766 0.91016,12.922 2.2852,19.25c0.04688,0.19531 0,0.39844 0.04688,0.59375c7.75,5.0664 24.031,4.0195 32.227,4.2695c10.426,0.35156 18.715,-2.8789 28.398,-4.6172l0,0.00391c0.80469,-1.0312 2.0234,-1.6523 3.332,-1.6875c3.1289,-0.10156 0.84375,-3.3281 1.0898,-6.7031c0.29688,-4.1211 0.59766,-8.1445 0.59766,-12.316c0.08984,-7.1055 0.85547,-14.188 2.2773,-21.152l0.00496,-0.00456zm-11.57,-177.25c0.50781,-0.70703 1.2188,-1.2461 2.0391,-1.5391c-2.6484,-1.6914 -4.7773,-4.0781 -6.1602,-6.8984c-0.375,-0.96875 -0.22656,-2.0586 0.39844,-2.8867c-0.05078,0 -0.05078,0.05078 -0.09766,0.05078l0,0.00391c-2.4609,1.9219 -5.3594,3.2031 -8.4375,3.7227c-4.0391,0.16406 -8.0469,-0.80078 -11.57,-2.7812c0.27344,0.52344 0.44141,1.0977 0.49219,1.6875c1.5391,21.996 2.1367,44.887 4.2227,66.832c1.6211,-8.3711 3.7266,-16.645 6.3047,-24.773c3.6758,-11.027 6.0117,-23.836 12.809,-33.418l-0.00077,-0.00049zm-8.6406,-132.72c2.5391,-16.625 -6.6484,-3.1289 -16.93,-1.6367c-6.0781,1.043 -12.32,0.49219 -18.121,-1.5938c-15.688,-7.0469 2.3828,-14.594 8.6875,-18.168c16.734,-9.5859 24.383,-19.812 20.457,-40.125c-0.92188,-7.9414 -2.8555,-15.734 -5.7578,-23.188c-5.9648,9.2891 -9.4844,20.605 -17.977,28.848c-7.6953,7.4375 -17.277,19.363 -29.195,16.383l0,0.00391c-1.5273,-0.40625 -2.7188,-1.6016 -3.125,-3.1289c-0.8125,-2.8516 -0.78906,-5.875 0.07422,-8.7109c0.86328,-2.832 2.5273,-5.3594 4.7891,-7.2734c10.938,-9.2344 20.258,-21.5 20.41,-36.691c0.04687,-8.4375 -3.7773,-12.91 -8.3125,-19.465c-0.74219,-1.043 -10.426,-15.242 -10.723,-15.242c-10.129,10.676 -1.9844,29.641 -1.7891,42.801c0.14844,13.059 -6.4531,28.648 -21.797,25.375c-4.7148,-0.99219 -5.4102,-5.4609 -5.8086,-9.2852c-0.99219,-10.277 8.6875,-18.52 8.6875,-29.793c0,-6.3516 5.5625,-33.859 -8.2383,-33.512c-6.457,0.14844 -19.418,-2.3828 -14.652,6.3555c1.4609,2.4805 2.5156,5.1797 3.1328,7.9922c3.1758,11.965 -5.3164,30.086 -17.383,33.418c-15.59,4.3164 -8.9375,-19.613 -6.5625,-25.125c5.3164,-12.465 3.7266,-35.652 -13.258,-37.09c-4.5664,-0.34375 -12.02,-1.8867 -17.938,-1.9844c0.69531,11.422 -15.34,17.625 -21.797,25.273c-5.125,6.1445 12.105,22.031 17.566,25.117c7.0469,3.6133 12.715,9.4375 16.137,16.578c6.6562,13.309 -12.41,13.656 -19.613,10.625c-11.617,-4.8633 -19.758,-17.328 -24.23,-29.844c-3.5742,5.168 -7.4375,10.281 -10.777,15.641c-8.6875,13.902 13.504,17.18 23.289,19.91c7.3008,1.9844 13.355,7.6953 9.5859,15.445c-5.6602,11.715 -19.715,0.69531 -26.863,-3.5c-0.84375,-0.49609 -13.16,-8.9844 -10.133,-11.02l0.00391,0.0039c-0.19922,0.14453 -0.41406,0.25781 -0.64453,0.34375c-0.07422,0.85156 -0.20703,1.6992 -0.39844,2.5352c-1.8867,9.582 -3.2305,39.57 8.5938,44.625c13.75,5.957 26.809,5.8594 41.41,5.6602c6.6562,-0.10156 24.062,-0.35156 20.754,11.77c-3.4297,12.508 -21.504,8.0898 -30.293,6.8516c-9.6992,-0.73438 -19.258,-2.793 -28.398,-6.125c-0.80078,-0.37109 -1.5508,-0.83594 -2.2344,-1.3906c2.4844,7.1016 7.2031,12.859 9.9844,20.656c4.8633,13.754 13.953,14.352 26.809,15.938c0.14844,0 0.25,0.10156 0.39844,0.14844c10.031,-7.9453 27.855,-30.086 40.762,-20.125l0,-0.0039c1.1328,1.1523 1.5664,2.8203 1.1406,4.375c-2.4336,11.871 -14.797,10.23 -21.148,17.031l0,0.0039c-4.6094,4.8594 -11.027,7.5898 -17.727,7.5469c-1.2812,0.93359 -3.0156,0.95703 -4.3203,0.05078c-1.5352,0 -3.125,-0.05078 -4.7109,-0.10156c0.39453,0.35156 0.83984,0.64844 1.2383,1.043c5.4102,5.3633 10.062,12.762 17.328,15.938c7.3438,3.1758 14.797,7.5977 23.086,4.668c7.1016,-2.5312 11.719,-11.121 15.312,-17.18c1.1602,-1.8867 3.5195,-2.6445 5.5586,-1.7891c2.043,0.85156 3.1562,3.0664 2.6289,5.2148c-2.3281,8.418 -7.4805,15.781 -14.594,20.855c2.3008,0.6875 4.7109,0.92578 7.1016,0.69531c7.25,-0.74219 11.566,-5.2148 16.484,-10.062c3.6211,-4.6641 6.2852,-9.9961 7.8438,-15.691c2.3359,-5.957 5.8594,-6.6562 6.0078,-14.352l0,0.00391c0.0625,-0.44531 0.16406,-0.88281 0.29688,-1.3125c-0.48828,-8.4336 -3.2305,-16.578 -7.9453,-23.586c-0.25781,1.0117 -0.625,1.9961 -1.0898,2.9297c-0.99219,2.0352 -1.1406,4.9609 -2.1367,7.2969c-1.3906,3.1289 -1.8438,7.9922 -5.3633,9.832l0.0039,0c-2.4023,1.4648 -4.6797,3.125 -6.8047,4.9648c-4.668,3.3789 -9.1367,-4.375 -4.5156,-7.7422c1.7617,-1.5781 3.6367,-3.0234 5.6094,-4.3242c1.8359,-0.94531 3.0625,-6.8516 3.9688,-8.7891c0.75,-1.75 0.55078,-3.8242 1.543,-5.7578c0.77344,-3.0859 1.3359,-6.2188 1.6836,-9.3828c-2.5938,2.293 -5.375,4.3672 -8.3125,6.207c-3.2227,1.7852 -7.25,1.3867 -10.578,3.0625c-5.1094,2.6836 -9.625,-5.0625 -4.4688,-7.6953l0.00391,0c1.918,-1.043 3.9844,-1.7969 6.125,-2.2344c1.9414,-0.20703 3.8359,-0.72656 5.6133,-1.5391c2.2695,-1.5781 4.4609,-3.2656 6.5625,-5.0625c-0.4375,-0.64844 -0.875,-1.2422 -1.3125,-1.8359c-1.0469,-1.5391 -2.0391,-3.1289 -3.0625,-4.7148c-8.2422,3.7227 -18.074,6.75 -26.516,4.3164c-13.5,-3.9375 -27.258,-9.625 -40.957,-12.41c-5.6602,-1.1406 -3.2305,-9.7812 2.3828,-8.6406c11.375,2.332 22.195,7.5469 33.512,10.379l0,-0.00391c8.8789,2.5312 18.348,2.0234 26.91,-1.4414c-4.1211,-7.2969 -7.875,-14.844 -11.566,-22.145c-0.14844,-0.29688 -0.35156,-0.59375 -0.49609,-0.94141c-5.8594,0.34375 -11.672,0.59375 -17.578,0.59375c-4.7266,-0.30078 -9.3945,-1.1797 -13.906,-2.625c-5.6094,-1.3398 -3.2227,-9.9258 2.3359,-8.6367c5.082,1.4219 10.316,2.2031 15.59,2.332c2.8789,0 5.7578,-0.14844 8.5938,-0.29688c-6.5742,-9.1406 -12.137,-18.969 -16.586,-29.312c-3.5273,-9.4336 -3.5781,-32.023 -10.676,-38.5c-4.2695,-3.9375 2.0859,-10.223 6.3047,-6.3516c9.5859,8.75 6.9023,25.918 11.074,37.391l0,-0.0039c4.7969,12.199 10.766,23.906 17.82,34.953c2.9805,-2.6875 4.9883,-6.2812 5.7148,-10.223c0.64453,-1.8359 1.7852,-3.2773 2.582,-5.0664c0.22266,-1.8203 0.17188,-3.6602 -0.14844,-5.4648c0,-4.9609 8.9844,-4.9609 8.9844,0c0.55078,3.3672 0.15625,6.8242 -1.1406,9.9844c-1.4648,2.8828 -2.7578,5.8516 -3.875,8.8828c-1.3438,3.8828 -3.9688,7.1914 -7.4375,9.3867c1.6875,2.6836 3.3281,5.3633 5.0195,7.9922c2.582,4.0742 5.2109,8.2422 7.875,12.41l-0.00391,0.0039c0.49609,-0.85156 1.0938,-1.6367 1.7852,-2.332c0.69531,-0.69531 0.94531,-0.875 0.94531,-0.875c0.10156,-0.10156 0.14844,-0.20312 0.29688,-0.35156c2.7852,-3.668 6.0195,-6.9688 9.625,-9.832c1.0234,-0.61328 2.2461,-0.78906 3.3984,-0.49219c1.1523,0.30078 2.1367,1.0508 2.7266,2.0859c1.1953,2.1328 0.49219,4.8242 -1.5859,6.1016c-1.2422,1.1289 -2.3906,2.3594 -3.4258,3.6758c-1.3359,1.25 -2.5938,2.5781 -3.7773,3.9727c-1.1328,1.1406 -2.1328,2.4062 -2.9766,3.7773c-0.57031,0.82422 -1.2969,1.5352 -2.1367,2.0859c1.9844,3.2227 3.9375,6.4531 5.8086,9.7305c6.3359,-1.5508 12.297,-4.3516 17.527,-8.2422c4.7695,-3.6211 10.578,-5.8594 15.195,-9.5859c4.4688,-3.5742 10.824,2.7344 6.3516,6.3086c-3.5977,2.4805 -7.3281,4.7656 -11.168,6.8516c-3.3242,2.1367 -6.2578,5.2148 -9.7344,7c-4.4375,2.2773 -9.0742,4.1367 -13.852,5.5586c0.875,1.6875 1.8359,3.3789 2.6836,5.1133l-0.00391,0.00391c2.5352,0.875 5.125,1.5859 7.75,2.1328c5.332,1.0781 10.75,1.6641 16.188,1.75c2.3984,0.07422 4.3047,2.043 4.3047,4.4453c0,2.3984 -1.9062,4.3672 -4.3047,4.4414c-6.1133,0.03125 -12.207,-0.63281 -18.168,-1.9883c3.4102,5.3906 5.4688,11.523 6.0039,17.879c22.023,-3.8477 57.031,-1.6602 61.098,-28.621l0.00077,0.00025zm-4.9609,246.03c-0.71484,-2.8203 -0.94922,-5.7383 -0.69531,-8.6367c0,-5.3164 -0.5,-10.578 -0.84375,-15.844c-0.10156,0.5 -0.19531,0.99219 -0.29688,1.4922c-0.54688,3.8242 -6.1602,4.2188 -8.0469,1.3867l0,0.00391c-0.47656,8.9688 -2.0781,17.84 -4.7695,26.41c0.10156,5.5117 0,11.074 -0.04297,16.586c1.0352,2.0195 0.39453,4.4922 -1.4922,5.7578c0.14844,2.0859 0.24609,4.2227 0.24609,6.4102c-0.01172,0.80469 -0.23438,1.5898 -0.64453,2.2812c0.14844,0 0.34375,0.04687 0.54688,0.04687c4.1211,0.49609 8.3398,0.84375 12.562,0.94531l0,0.00391c-0.21875,-1.7148 -0.33203,-3.4414 -0.34766,-5.168c-1.2773,-1.0234 -1.9023,-2.6562 -1.6406,-4.2695c1.3477,-9.2266 3.1719,-18.371 5.4648,-27.406l0.00053,0.0001zm-16.289,-128.3c-1.3398,-1.3125 -2.625,-2.6836 -3.9688,-4.1719l0,-0.00391c-1.9297,-1.8594 -4.1445,-3.4023 -6.5625,-4.5664c4.0742,26.02 2.5859,53.129 7.25,79.148c0.44141,2.3789 0.75391,4.7812 0.94531,7.1953c-1.3906,-25.023 -5.168,-50.348 -0.5,-74.578l0.00391,0.00391c0.19141,-1.5156 1.3359,-2.7344 2.832,-3.0273l0.00008,0.0003zm-10.473,105.44c0.00781,-0.13672 -0.00781,-0.26953 -0.05078,-0.39844c-2.1016,-12.141 0.05078,-24.422 -2.1016,-36.469c-5.0156,-27.707 -2.2852,-56.875 -8.2422,-84.262l0,-0.00391c-0.02344,-0.24609 -0.02344,-0.49609 0,-0.74219c-0.82812,-1.2578 -1.2891,-2.7188 -1.3398,-4.2227c-0.09766,-3.2773 -7.4375,-8.3125 -12.25,-13.207c-2.0859,4.2656 -6.25,7.1289 -10.98,7.5508c-3.8711,0.74219 -5.6055,4.7148 -8.3398,7.0977c7.2734,30.523 17.5,60.27 30.539,88.812c5.0352,11.66 9.2969,23.645 12.766,35.863l-0.00082,-0.01826zm-32.719,-173.73c0.54297,-1.6875 2.7773,-3.875 1.6367,-5.8594c-1.3398,-2.3359 -3.3789,3.9688 -3.9375,4.9141c-1.1953,2.2852 -2.3828,4.5664 -3.3789,6.9531l0,-0.00391c-1.7773,5.6953 -4.9336,10.867 -9.1875,15.047c-5.957,5.2109 -9.625,9.9258 -18.121,10.824c-8.0938,0.83984 -12.863,-1.3438 -20.355,-2.8828l-0.00391,0c-1.6484,-0.21094 -2.9414,-1.5234 -3.1328,-3.1758c-2.5977,0.16016 -5.207,-0.16016 -7.6953,-0.94141c-7.0664,-1.6406 -13.75,-4.625 -19.688,-8.793c-5.3633,-4.6641 -9.625,-10.375 -14.996,-14.875c-4.2617,-2.543 -8.6914,-4.7969 -13.258,-6.75c-1.2422,-0.64844 -2.0664,-1.8867 -2.1875,-3.2812c-3.875,3.6758 -5.3633,9.8828 -8.9375,13.805c-4.8633,5.3633 -14.75,4.7188 -20.707,10.379l0,-0.0039c-7.0938,6.5781 -12.77,14.539 -16.672,23.391c-2.082,4.8633 -7.6953,8.3125 -10.129,14.438c-3.8242,9.7812 -3.4258,17.828 10.328,20.125c8.7891,1.4883 8.0938,-6.6562 10.23,-13.754c2.0195,-7.3086 5.3516,-14.188 9.8281,-20.309c3.0625,-4.0703 9.5391,-9.2852 11.719,-13.656c2.1836,-4.3711 7.875,-1.75 8.3438,2.2344l0,0.0039c1.4727,9.0859 0.62109,18.395 -2.4805,27.059c-5.1172,11.77 -1.3438,23.438 -5.1172,34.855l3.0312,0c4.4219,-0.35156 8.6172,-2.1094 11.977,-5.0117c3.3555,-2.8984 5.6992,-6.7969 6.6914,-11.121c1.9844,-9.7305 0.09766,-19.316 1.1406,-28.996c0.94141,-8.4922 1.2422,-17.938 7.5469,-24.281l0,-0.0039c1.7422,-1.7344 4.5586,-1.7344 6.3047,0c3.5117,3.6055 5.1953,8.6133 4.5664,13.605c-1.2188,12.906 0.07813,25.922 3.8242,38.332c0.71094,2.2695 0.78125,4.6914 0.20312,7c-1.7891,6.5 -5.3633,8.4922 2.1367,3.0273c9.2852,-6.7031 11.664,-18.473 12.062,-29.047c0.20312,-4.8633 7.6484,-6.2578 8.7891,-1.1406c0.75,3.4258 1.1953,4.9609 5.0664,3.6719l-0.0039,-0.00391c4.4844,-2.1016 7.9258,-5.9336 9.5352,-10.621c0.32422,-2.207 0.76172,-4.3984 1.3125,-6.5625c1.043,-2.2344 6.0078,-4.8711 8.1406,-2.625c1.9375,2.0391 -0.39453,6.5625 3.625,6.6055c7.3164,0.80469 14.629,-1.5039 20.16,-6.3555c3.9297,-2.2383 8.1133,-3.9883 12.461,-5.2148c0.58203,-1.668 2.1094,-2.8242 3.8711,-2.9258c-1.3359,-2.6992 -2.3359,-5.5508 -2.9766,-8.4922c-0.8125,-3.0469 -1.3789,-6.1484 -1.6914,-9.2852c-0.58203,-3.4062 -0.53906,-6.8867 0.125,-10.277l0.00079,-0.02067zm-6.8086,92.371c-0.24609,-0.69531 -0.49609,-1.3906 -0.79297,-2.0859c-4.9922,-12.527 -8.8633,-25.469 -11.57,-38.68c-3.2031,0.50781 -6.4375,0.73828 -9.6797,0.69531c5.0625,13.656 14.102,27.113 22.043,40.07l-0.00033,0.00059zm-33.688,-256.65l0,0.00391c0.16406,-3.4648 -0.81641,-6.8828 -2.7812,-9.7344c-0.15234,4.2148 -1.0078,8.3789 -2.5352,12.312c-7.8125,18.359 5.1406,7.4492 5.293,-2.5781l0.0234,-0.00341zm-51.715,33.02c6.8008,-5.0664 5.6602,-8.7109 -3.4258,-10.938c-5.2383,-4.4961 -10.105,-9.4102 -14.547,-14.699c1.9375,4.2227 4.375,8.1953 6.2578,12.418c1.8164,5.8906 6.0859,10.711 11.715,13.219z" fill="#ffffff" id="svg_23"/>
  </g>
 </g>
</svg>
